{
  "source": "C:\\Users\\Peter\\Desktop\\stuff\\MIUN\\quantitative_research\\video_compression\\videos\\HEVC_CLASS_B\\Cactus_1920x1080_50.y4m",
  "output": "C:\\Users\\Peter\\Desktop\\stuff\\MIUN\\quantitative_research\\video_compression\\compressed_videos\\HEVC_CLASS_B\\av1\\2\\Cactus_1920x1080_50_av1.mkv",
  "codec": "av1",
  "ok": "Input #0, yuv4mpegpipe, from 'C:\\Users\\Peter\\Desktop\\stuff\\MIUN\\quantitative_research\\video_compression\\videos\\HEVC_CLASS_B\\Cactus_1920x1080_50.y4m':\n  Duration: 00:00:10.00, start: 0.000000, bitrate: 1244162 kb/s\n  Stream #0:0: Video: rawvideo (I420 / 0x30323449), yuv420p(progressive), 1920x1080, 50 fps, 50 tbr, 50 tbn\n[out#0/matroska @ 000001c61d339080] Codec AVOption b:a (set bitrate (in bits/s)) has not been used for any stream. The most likely reason is either wrong type (e.g. a video option with no video streams) or that it is a private option of some decoder which was not actually used for any stream.\nStream mapping:\n  Stream #0:0 -> #0:0 (rawvideo (native) -> av1 (libsvtav1))\nPress [q] to stop, [?] for help\nSvt[info]: -------------------------------------------\nSvt[info]: SVT [version]:\tSVT-AV1 Encoder Lib v3.1.0-19-g6ecfe8ec\nSvt[info]: SVT [build]  :\tGCC 15.2.0\t 64 bit\nSvt[info]: LIB Build date: Aug 17 2025 11:37:13\nSvt[info]: -------------------------------------------\n[libsvtav1 @ 000001c61d33c0c0] Specified chroma sample location center is unsupported on the AV1 bit stream level. Usage of a container that allows passing this information - such as Matroska - is recommended.\nSvt[info]: Level of Parallelism: 5\nSvt[info]: Number of PPCS 93\nSvt[info]: [asm level on system : up to avx2]\nSvt[info]: [asm level selected : up to avx2]\nSvt[info]: -------------------------------------------\nSvt[info]: SVT [config]: main profile\ttier (auto)\tlevel (auto)\nSvt[info]: SVT [config]: width / height / fps numerator / fps denominator \t\t: 1920 / 1080 / 50 / 1\nSvt[info]: SVT [config]: bit-depth / color format \t\t\t\t\t: 8 / YUV420\nSvt[info]: SVT [config]: preset / tune / pred struct \t\t\t\t\t: 4 / PSNR / random access\nSvt[info]: SVT [config]: gop size / mini-gop size / key-frame type \t\t\t: 321 / 16 / key frame\nSvt[info]: SVT [config]: BRC mode / target bitrate (kbps)\t\t\t\t: VBR / 2000 \nSvt[info]: SVT [config]: AQ mode / Variance Boost \t\t\t\t\t: 2 / 0\nSvt[info]: SVT [config]: sharpness / luminance-based QP bias \t\t\t\t: 0 / 0\nSvt[info]: SVT [config]: QP scale compress strength \t\t\t\t\t: 0\nSvt[info]: -------------------------------------------\nOutput #0, matroska, to 'C:\\Users\\Peter\\Desktop\\stuff\\MIUN\\quantitative_research\\video_compression\\compressed_videos\\HEVC_CLASS_B\\av1\\2\\Cactus_1920x1080_50_av1.mkv':\n  Metadata:\n    encoder         : Lavf62.3.100\n  Stream #0:0: Video: av1 (AV01 / 0x31305641), yuv420p(tv, progressive), 1920x1080, q=2-31, 2000 kb/s, 50 fps, 1k tbn\n    Metadata:\n      encoder         : Lavc62.11.100 libsvtav1\n    Side data:\n      cpb: bitrate max/min/avg: 0/0/2000000 buffer size: 2000000 vbv_delay: N/A\nframe=    0 fps=0.0 q=0.0 size=       0KiB time=N/A bitrate=N/A speed=N/A elapsed=0:00:04.43    \nframe=    0 fps=0.0 q=0.0 size=       0KiB time=N/A bitrate=N/A speed=N/A elapsed=0:00:04.96    \nframe=    0 fps=0.0 q=0.0 size=       0KiB time=N/A bitrate=N/A speed=N/A elapsed=0:00:05.47    \nframe=    0 fps=0.0 q=0.0 size=       0KiB time=N/A bitrate=N/A speed=N/A elapsed=0:00:05.98    \nframe=    0 fps=0.0 q=0.0 size=       0KiB time=N/A bitrate=N/A speed=N/A elapsed=0:00:06.50    \nframe=    0 fps=0.0 q=0.0 size=       0KiB time=N/A bitrate=N/A speed=N/A elapsed=0:00:07.01    \nframe=    0 fps=0.0 q=0.0 size=       0KiB time=N/A bitrate=N/A speed=N/A elapsed=0:00:07.53    \nframe=    0 fps=0.0 q=0.0 size=       0KiB time=N/A bitrate=N/A speed=N/A elapsed=0:00:08.04    \nframe=    0 fps=0.0 q=0.0 size=       0KiB time=N/A bitrate=N/A speed=N/A elapsed=0:00:08.57    \nframe=    0 fps=0.0 q=0.0 size=       0KiB time=N/A bitrate=N/A speed=N/A elapsed=0:00:09.10    \nframe=    0 fps=0.0 q=0.0 size=       0KiB time=N/A bitrate=N/A speed=N/A elapsed=0:00:09.61    \nframe=    0 fps=0.0 q=0.0 size=       0KiB time=N/A bitrate=N/A speed=N/A elapsed=0:00:10.12    \nframe=    0 fps=0.0 q=0.0 size=       0KiB time=N/A bitrate=N/A speed=N/A elapsed=0:00:10.64    \nframe=    0 fps=0.0 q=0.0 size=       0KiB time=N/A bitrate=N/A speed=N/A elapsed=0:00:11.15    \nframe=    0 fps=0.0 q=0.0 size=       0KiB time=N/A bitrate=N/A speed=N/A elapsed=0:00:11.67    \nframe=    0 fps=0.0 q=0.0 size=       0KiB time=N/A bitrate=N/A speed=N/A elapsed=0:00:12.19    \nframe=    0 fps=0.0 q=0.0 size=       0KiB time=N/A bitrate=N/A speed=N/A elapsed=0:00:12.70    \nframe=    0 fps=0.0 q=0.0 size=       0KiB time=N/A bitrate=N/A speed=N/A elapsed=0:00:13.21    \nframe=    0 fps=0.0 q=0.0 size=       0KiB time=N/A bitrate=N/A speed=N/A elapsed=0:00:13.73    \nframe=    0 fps=0.0 q=0.0 size=       0KiB time=N/A bitrate=N/A speed=N/A elapsed=0:00:14.25    \nframe=    0 fps=0.0 q=0.0 size=       0KiB time=N/A bitrate=N/A speed=N/A elapsed=0:00:14.76    \nframe=    0 fps=0.0 q=0.0 size=       0KiB time=N/A bitrate=N/A speed=N/A elapsed=0:00:15.28    \nframe=    0 fps=0.0 q=0.0 size=       0KiB time=N/A bitrate=N/A speed=N/A elapsed=0:00:15.79    \nframe=    0 fps=0.0 q=0.0 size=       0KiB time=N/A bitrate=N/A speed=N/A elapsed=0:00:16.31    \nframe=    0 fps=0.0 q=0.0 size=       0KiB time=N/A bitrate=N/A speed=N/A elapsed=0:00:16.82    \nframe=    0 fps=0.0 q=0.0 size=       0KiB time=N/A bitrate=N/A speed=N/A elapsed=0:00:17.34    \nframe=    1 fps=0.1 q=24.0 size=       1KiB time=00:00:00.00 bitrate=N/A speed=   0x elapsed=0:00:17.85    \nframe=    1 fps=0.1 q=24.0 size=       1KiB time=00:00:00.00 bitrate=N/A speed=   0x elapsed=0:00:18.38    \nframe=    1 fps=0.1 q=24.0 size=       1KiB time=00:00:00.00 bitrate=N/A speed=   0x elapsed=0:00:18.90    \nframe=    1 fps=0.1 q=24.0 size=       1KiB time=00:00:00.00 bitrate=N/A speed=   0x elapsed=0:00:19.42    \nframe=    1 fps=0.1 q=24.0 size=       1KiB time=00:00:00.00 bitrate=N/A speed=   0x elapsed=0:00:19.93    \nframe=    1 fps=0.0 q=24.0 size=       1KiB time=00:00:00.00 bitrate=N/A speed=   0x elapsed=0:00:20.45    \nframe=    1 fps=0.0 q=24.0 size=       1KiB time=00:00:00.00 bitrate=N/A speed=   0x elapsed=0:00:20.96    \nframe=    1 fps=0.0 q=24.0 size=       1KiB time=00:00:00.00 bitrate=N/A speed=   0x elapsed=0:00:21.48    \nframe=    1 fps=0.0 q=24.0 size=       1KiB time=00:00:00.00 bitrate=N/A speed=   0x elapsed=0:00:22.00    \nframe=    1 fps=0.0 q=24.0 size=       1KiB time=00:00:00.00 bitrate=N/A speed=   0x elapsed=0:00:22.52    \nframe=    1 fps=0.0 q=24.0 size=       1KiB time=00:00:00.00 bitrate=N/A speed=   0x elapsed=0:00:23.04    \nframe=    1 fps=0.0 q=24.0 size=       1KiB time=00:00:00.00 bitrate=N/A speed=   0x elapsed=0:00:23.56    \nframe=    1 fps=0.0 q=24.0 size=       1KiB time=00:00:00.00 bitrate=N/A speed=   0x elapsed=0:00:24.07    \nframe=    1 fps=0.0 q=24.0 size=       1KiB time=00:00:00.00 bitrate=N/A speed=   0x elapsed=0:00:24.60    \nframe=    1 fps=0.0 q=24.0 size=       1KiB time=00:00:00.00 bitrate=N/A speed=   0x elapsed=0:00:25.10    \nframe=    1 fps=0.0 q=24.0 size=       1KiB time=00:00:00.00 bitrate=N/A speed=   0x elapsed=0:00:25.63    \nframe=    2 fps=0.1 q=54.0 size=       1KiB time=00:00:00.02 bitrate= 224.8kbits/s speed=0.000765x elapsed=0:00:26.13    \nframe=    3 fps=0.1 q=51.0 size=       1KiB time=00:00:00.04 bitrate= 112.4kbits/s speed=0.0015x elapsed=0:00:26.66    \nframe=    5 fps=0.2 q=49.0 size=       1KiB time=00:00:00.08 bitrate=  56.2kbits/s speed=0.00294x elapsed=0:00:27.17    \nframe=    6 fps=0.2 q=51.0 size=       1KiB time=00:00:00.10 bitrate=  45.0kbits/s speed=0.00361x elapsed=0:00:27.69    \nframe=    6 fps=0.2 q=51.0 size=       1KiB time=00:00:00.10 bitrate=  45.0kbits/s speed=0.00354x elapsed=0:00:28.20    \nframe=    7 fps=0.2 q=50.0 size=       1KiB time=00:00:00.12 bitrate=  37.5kbits/s speed=0.00418x elapsed=0:00:28.72    \nframe=    7 fps=0.2 q=50.0 size=       1KiB time=00:00:00.12 bitrate=  37.5kbits/s speed=0.0041x elapsed=0:00:29.24    \nframe=    8 fps=0.3 q=50.0 size=       1KiB time=00:00:00.14 bitrate=  32.1kbits/s speed=0.00471x elapsed=0:00:29.74    \nframe=   10 fps=0.3 q=49.0 size=       1KiB time=00:00:00.18 bitrate=  25.0kbits/s speed=0.00595x elapsed=0:00:30.26    \nframe=   10 fps=0.3 q=49.0 size=       1KiB time=00:00:00.18 bitrate=  25.0kbits/s speed=0.00585x elapsed=0:00:30.78    \nframe=   11 fps=0.4 q=50.0 size=       1KiB time=00:00:00.20 bitrate=  22.5kbits/s speed=0.00639x elapsed=0:00:31.30    \nframe=   11 fps=0.3 q=50.0 size=       1KiB time=00:00:00.20 bitrate=  22.5kbits/s speed=0.00628x elapsed=0:00:31.86    \nframe=   13 fps=0.4 q=49.0 size=       1KiB time=00:00:00.24 bitrate=  18.7kbits/s speed=0.00741x elapsed=0:00:32.38    \nframe=   15 fps=0.5 q=48.0 size=       1KiB time=00:00:00.28 bitrate=  16.1kbits/s speed=0.0085x elapsed=0:00:32.94    \nframe=   16 fps=0.5 q=47.0 size=       1KiB time=00:00:00.30 bitrate=  15.0kbits/s speed=0.00896x elapsed=0:00:33.48    \nframe=   16 fps=0.5 q=47.0 size=       1KiB time=00:00:00.30 bitrate=  15.0kbits/s speed=0.00882x elapsed=0:00:34.00    \nframe=   17 fps=0.5 q=35.0 size=       1KiB time=00:00:00.32 bitrate=  14.1kbits/s speed=0.00926x elapsed=0:00:34.54    \nframe=   18 fps=0.5 q=46.0 size=       1KiB time=00:00:00.34 bitrate=  13.2kbits/s speed=0.0097x elapsed=0:00:35.06    \nframe=   18 fps=0.5 q=46.0 size=       1KiB time=00:00:00.34 bitrate=  13.2kbits/s speed=0.00955x elapsed=0:00:35.62    \nframe=   19 fps=0.5 q=48.0 size=       1KiB time=00:00:00.36 bitrate=  12.5kbits/s speed=0.00994x elapsed=0:00:36.20    \nframe=   20 fps=0.5 q=46.0 size=       1KiB time=00:00:00.36 bitrate=  12.5kbits/s speed=0.00978x elapsed=0:00:36.81    \nframe=   21 fps=0.6 q=49.0 size=       1KiB time=00:00:00.40 bitrate=  11.2kbits/s speed=0.0107x elapsed=0:00:37.47    \nframe=   22 fps=0.6 q=45.0 size=       1KiB time=00:00:00.42 bitrate=  10.7kbits/s speed=0.0111x elapsed=0:00:37.98    \nframe=   22 fps=0.6 q=45.0 size=       1KiB time=00:00:00.42 bitrate=  10.7kbits/s speed=0.0109x elapsed=0:00:38.50    \nframe=   23 fps=0.6 q=48.0 size=       1KiB time=00:00:00.44 bitrate=  10.2kbits/s speed=0.0113x elapsed=0:00:39.01    \nframe=   23 fps=0.6 q=48.0 size=       1KiB time=00:00:00.44 bitrate=  10.2kbits/s speed=0.0111x elapsed=0:00:39.53    \nframe=   24 fps=0.6 q=40.0 size=       1KiB time=00:00:00.46 bitrate=   9.8kbits/s speed=0.0115x elapsed=0:00:40.04    \nframe=   24 fps=0.6 q=40.0 size=       1KiB time=00:00:00.46 bitrate=   9.8kbits/s speed=0.0113x elapsed=0:00:40.56    \nframe=   25 fps=0.6 q=46.0 size=       1KiB time=00:00:00.48 bitrate=   9.4kbits/s speed=0.0117x elapsed=0:00:41.07    \nframe=   26 fps=0.6 q=45.0 size=       1KiB time=00:00:00.50 bitrate=   9.0kbits/s speed=0.012x elapsed=0:00:41.59    \nframe=   28 fps=0.7 q=44.0 size=       1KiB time=00:00:00.54 bitrate=   8.3kbits/s speed=0.0128x elapsed=0:00:42.11    \nframe=   29 fps=0.7 q=46.0 size=       1KiB time=00:00:00.56 bitrate=   8.0kbits/s speed=0.0131x elapsed=0:00:42.62    \nframe=   30 fps=0.7 q=44.0 size=       1KiB time=00:00:00.58 bitrate=   7.8kbits/s speed=0.0134x elapsed=0:00:43.14    \nframe=   32 fps=0.7 q=46.0 size=       1KiB time=00:00:00.62 bitrate=   7.3kbits/s speed=0.0142x elapsed=0:00:43.65    \nframe=   33 fps=0.7 q=35.0 size=       1KiB time=00:00:00.64 bitrate=   7.0kbits/s speed=0.0145x elapsed=0:00:44.17    \nframe=   33 fps=0.7 q=35.0 size=       1KiB time=00:00:00.64 bitrate=   7.0kbits/s speed=0.0143x elapsed=0:00:44.69    \nframe=   34 fps=0.8 q=46.0 size=       1KiB time=00:00:00.66 bitrate=   6.8kbits/s speed=0.0146x elapsed=0:00:45.20    \nframe=   35 fps=0.8 q=48.0 size=       1KiB time=00:00:00.68 bitrate=   6.6kbits/s speed=0.0149x elapsed=0:00:45.72    \nframe=   35 fps=0.8 q=48.0 size=       1KiB time=00:00:00.68 bitrate=   6.6kbits/s speed=0.0147x elapsed=0:00:46.23    \nframe=   36 fps=0.8 q=42.0 size=       1KiB time=00:00:00.70 bitrate=   6.4kbits/s speed=0.015x elapsed=0:00:46.74    \nframe=   37 fps=0.8 q=49.0 size=       1KiB time=00:00:00.72 bitrate=   6.2kbits/s speed=0.0152x elapsed=0:00:47.27    \nframe=   39 fps=0.8 q=47.0 size=       1KiB time=00:00:00.76 bitrate=   5.9kbits/s speed=0.0159x elapsed=0:00:47.78    \nframe=   39 fps=0.8 q=47.0 size=       1KiB time=00:00:00.76 bitrate=   5.9kbits/s speed=0.0157x elapsed=0:00:48.30    \nframe=   39 fps=0.8 q=47.0 size=       1KiB time=00:00:00.76 bitrate=   5.9kbits/s speed=0.0156x elapsed=0:00:48.81    \nframe=   40 fps=0.8 q=43.0 size=       1KiB time=00:00:00.78 bitrate=   5.8kbits/s speed=0.0158x elapsed=0:00:49.33    \nframe=   40 fps=0.8 q=43.0 size=       1KiB time=00:00:00.78 bitrate=   5.8kbits/s speed=0.0157x elapsed=0:00:49.83    \nframe=   41 fps=0.8 q=46.0 size=       1KiB time=00:00:00.80 bitrate=   5.6kbits/s speed=0.0159x elapsed=0:00:50.36    \nframe=   41 fps=0.8 q=46.0 size=       1KiB time=00:00:00.80 bitrate=   5.6kbits/s speed=0.0157x elapsed=0:00:50.87    \nframe=   43 fps=0.8 q=47.0 size=       1KiB time=00:00:00.84 bitrate=   5.4kbits/s speed=0.0163x elapsed=0:00:51.40    \nframe=   43 fps=0.8 q=47.0 size=       1KiB time=00:00:00.84 bitrate=   5.4kbits/s speed=0.0162x elapsed=0:00:51.90    \nframe=   44 fps=0.8 q=43.0 size=       1KiB time=00:00:00.86 bitrate=   5.2kbits/s speed=0.0164x elapsed=0:00:52.42    \nframe=   45 fps=0.9 q=46.0 size=       1KiB time=00:00:00.88 bitrate=   5.1kbits/s speed=0.0166x elapsed=0:00:52.93    \nframe=   47 fps=0.9 q=47.0 size=       1KiB time=00:00:00.92 bitrate=   4.9kbits/s speed=0.0172x elapsed=0:00:53.46    \nframe=   47 fps=0.9 q=47.0 size=       1KiB time=00:00:00.92 bitrate=   4.9kbits/s speed=0.017x elapsed=0:00:53.96    \nframe=   48 fps=0.9 q=46.0 size=       1KiB time=00:00:00.94 bitrate=   4.8kbits/s speed=0.0173x elapsed=0:00:54.48    \nframe=   49 fps=0.9 q=31.0 size=       1KiB time=00:00:00.96 bitrate=   4.7kbits/s speed=0.0175x elapsed=0:00:55.00    \nframe=   50 fps=0.9 q=45.0 size=       1KiB time=00:00:00.98 bitrate=   4.6kbits/s speed=0.0177x elapsed=0:00:55.51    \nframe=   50 fps=0.9 q=45.0 size=       1KiB time=00:00:00.98 bitrate=   4.6kbits/s speed=0.0175x elapsed=0:00:56.03    \nframe=   51 fps=0.9 q=48.0 size=       1KiB time=00:00:01.00 bitrate=   4.5kbits/s speed=0.0177x elapsed=0:00:56.54    \nframe=   54 fps=0.9 q=45.0 size=       1KiB time=00:00:01.06 bitrate=   4.2kbits/s speed=0.0186x elapsed=0:00:57.06    \nframe=   54 fps=0.9 q=45.0 size=       1KiB time=00:00:01.06 bitrate=   4.2kbits/s speed=0.0184x elapsed=0:00:57.57    \nframe=   55 fps=0.9 q=48.0 size=       1KiB time=00:00:01.08 bitrate=   4.2kbits/s speed=0.0186x elapsed=0:00:58.10    \nframe=   55 fps=0.9 q=48.0 size=       1KiB time=00:00:01.08 bitrate=   4.2kbits/s speed=0.0184x elapsed=0:00:58.60    \nframe=   56 fps=0.9 q=45.0 size=       1KiB time=00:00:01.10 bitrate=   4.1kbits/s speed=0.0186x elapsed=0:00:59.12    \nframe=   57 fps=1.0 q=45.0 size=       1KiB time=00:00:01.12 bitrate=   4.0kbits/s speed=0.0188x elapsed=0:00:59.63    \nframe=   59 fps=1.0 q=48.0 size=       1KiB time=00:00:01.16 bitrate=   3.9kbits/s speed=0.0193x elapsed=0:01:00.16    \nframe=   60 fps=1.0 q=45.0 size=       1KiB time=00:00:01.18 bitrate=   3.8kbits/s speed=0.0194x elapsed=0:01:00.67    \nframe=   62 fps=1.0 q=44.0 size=       1KiB time=00:00:01.22 bitrate=   3.7kbits/s speed=0.0199x elapsed=0:01:01.19    \nframe=   64 fps=1.0 q=45.0 size=       1KiB time=00:00:01.26 bitrate=   3.6kbits/s speed=0.0204x elapsed=0:01:01.70    \nframe=   65 fps=1.0 q=29.0 size=       1KiB time=00:00:01.28 bitrate=   3.5kbits/s speed=0.0206x elapsed=0:01:02.22    \nframe=   66 fps=1.1 q=44.0 size=       1KiB time=00:00:01.30 bitrate=   3.5kbits/s speed=0.0207x elapsed=0:01:02.74    \nframe=   67 fps=1.1 q=46.0 size=       1KiB time=00:00:01.32 bitrate=   3.4kbits/s speed=0.0209x elapsed=0:01:03.25    \nframe=   68 fps=1.1 q=43.0 size=       1KiB time=00:00:01.34 bitrate=   3.4kbits/s speed=0.021x elapsed=0:01:03.76    \nframe=   69 fps=1.1 q=48.0 size=       1KiB time=00:00:01.36 bitrate=   3.3kbits/s speed=0.0212x elapsed=0:01:04.28    \nframe=   70 fps=1.1 q=43.0 size=       1KiB time=00:00:01.38 bitrate=   3.3kbits/s speed=0.0213x elapsed=0:01:04.79    \nframe=   70 fps=1.1 q=43.0 size=       1KiB time=00:00:01.38 bitrate=   3.3kbits/s speed=0.0211x elapsed=0:01:05.31    \nframe=   70 fps=1.1 q=43.0 size=       1KiB time=00:00:01.38 bitrate=   3.3kbits/s speed=0.021x elapsed=0:01:05.82    \nframe=   71 fps=1.1 q=46.0 size=       1KiB time=00:00:01.40 bitrate=   3.2kbits/s speed=0.0211x elapsed=0:01:06.34    \nframe=   71 fps=1.1 q=46.0 size=       1KiB time=00:00:01.40 bitrate=   3.2kbits/s speed=0.0209x elapsed=0:01:06.86    \nframe=   72 fps=1.1 q=38.0 size=       1KiB time=00:00:01.42 bitrate=   3.2kbits/s speed=0.0211x elapsed=0:01:07.37    \nframe=   74 fps=1.1 q=45.0 size=       1KiB time=00:00:01.44 bitrate=   3.1kbits/s speed=0.0211x elapsed=0:01:08.11    \nframe=   75 fps=1.1 q=47.0 size=       1KiB time=00:00:01.48 bitrate=   3.0kbits/s speed=0.0215x elapsed=0:01:08.75    \nframe=   75 fps=1.1 q=47.0 size=       1KiB time=00:00:01.48 bitrate=   3.0kbits/s speed=0.0214x elapsed=0:01:09.30    \nframe=   76 fps=1.1 q=45.0 size=       1KiB time=00:00:01.50 bitrate=   3.0kbits/s speed=0.0214x elapsed=0:01:10.08    \nframe=   77 fps=1.1 q=46.0 size=       1KiB time=00:00:01.52 bitrate=   3.0kbits/s speed=0.0215x elapsed=0:01:10.59    \nframe=   77 fps=1.1 q=46.0 size=       1KiB time=00:00:01.52 bitrate=   3.0kbits/s speed=0.0214x elapsed=0:01:11.11    \nframe=   79 fps=1.1 q=48.0 size=       1KiB time=00:00:01.56 bitrate=   2.9kbits/s speed=0.0218x elapsed=0:01:11.64    \nframe=   79 fps=1.1 q=48.0 size=       1KiB time=00:00:01.56 bitrate=   2.9kbits/s speed=0.0216x elapsed=0:01:12.16    \nframe=   80 fps=1.1 q=45.0 size=       1KiB time=00:00:01.58 bitrate=   2.8kbits/s speed=0.0217x elapsed=0:01:12.67    \nframe=   81 fps=1.1 q=30.0 size=       1KiB time=00:00:01.60 bitrate=   2.8kbits/s speed=0.0219x elapsed=0:01:13.18    \nframe=   82 fps=1.1 q=45.0 size=       1KiB time=00:00:01.62 bitrate=   2.8kbits/s speed=0.022x elapsed=0:01:13.71    \nframe=   84 fps=1.1 q=45.0 size=       1KiB time=00:00:01.66 bitrate=   2.7kbits/s speed=0.0224x elapsed=0:01:14.23    \nframe=   85 fps=1.1 q=48.0 size=       1KiB time=00:00:01.68 bitrate=   2.7kbits/s speed=0.0225x elapsed=0:01:14.74    \nframe=   86 fps=1.1 q=45.0 size=       1KiB time=00:00:01.70 bitrate=   2.6kbits/s speed=0.0226x elapsed=0:01:15.27    \nframe=   86 fps=1.1 q=45.0 size=       1KiB time=00:00:01.70 bitrate=   2.6kbits/s speed=0.0224x elapsed=0:01:15.79    \nframe=   87 fps=1.1 q=47.0 size=       1KiB time=00:00:01.72 bitrate=   2.6kbits/s speed=0.0225x elapsed=0:01:16.29    \nframe=   88 fps=1.1 q=45.0 size=       1KiB time=00:00:01.72 bitrate=   2.6kbits/s speed=0.0224x elapsed=0:01:16.80    \nframe=   88 fps=1.1 q=45.0 size=       1KiB time=00:00:01.74 bitrate=   2.6kbits/s speed=0.0224x elapsed=0:01:17.63    \nframe=   90 fps=1.1 q=45.0 size=       1KiB time=00:00:01.78 bitrate=   2.5kbits/s speed=0.0227x elapsed=0:01:18.36    \nframe=   91 fps=1.2 q=47.0 size=       1KiB time=00:00:01.80 bitrate=   2.5kbits/s speed=0.0228x elapsed=0:01:18.97    \nframe=   92 fps=1.2 q=45.0 size=       1KiB time=00:00:01.80 bitrate=   2.5kbits/s speed=0.0226x elapsed=0:01:19.58    \nframe=   93 fps=1.2 q=46.0 size=       1KiB time=00:00:01.84 bitrate=   2.4kbits/s speed=0.0229x elapsed=0:01:20.35    \nframe=   95 fps=1.2 q=47.0 size=       1KiB time=00:00:01.88 bitrate=   2.4kbits/s speed=0.0232x elapsed=0:01:21.20    \nframe=   96 fps=1.2 q=44.0 size=       1KiB time=00:00:01.90 bitrate=   2.4kbits/s speed=0.0231x elapsed=0:01:22.07    \nframe=   99 fps=1.2 q=47.0 size=       1KiB time=00:00:01.92 bitrate=   2.3kbits/s speed=0.0232x elapsed=0:01:22.85    \nframe=   99 fps=1.2 q=47.0 size=       1KiB time=00:00:01.96 bitrate=   2.3kbits/s speed=0.0234x elapsed=0:01:23.63    \nframe=  100 fps=1.2 q=45.0 size=       1KiB time=00:00:01.98 bitrate=   2.3kbits/s speed=0.0235x elapsed=0:01:24.26    \nframe=  101 fps=1.2 q=47.0 size=       1KiB time=00:00:02.00 bitrate=   2.2kbits/s speed=0.0236x elapsed=0:01:24.76    \nframe=  102 fps=1.2 q=44.0 size=       1KiB time=00:00:02.02 bitrate=   2.2kbits/s speed=0.0237x elapsed=0:01:25.29    \nframe=  102 fps=1.2 q=44.0 size=       1KiB time=00:00:02.02 bitrate=   2.2kbits/s speed=0.0235x elapsed=0:01:25.80    \nframe=  102 fps=1.2 q=44.0 size=       1KiB time=00:00:02.02 bitrate=   2.2kbits/s speed=0.0234x elapsed=0:01:26.38    \nframe=  103 fps=1.2 q=46.0 size=       1KiB time=00:00:02.04 bitrate=   2.2kbits/s speed=0.0234x elapsed=0:01:27.04    \nframe=  104 fps=1.2 q=44.0 size=       1KiB time=00:00:02.06 bitrate=   2.2kbits/s speed=0.0235x elapsed=0:01:27.69    \nframe=  105 fps=1.2 q=43.0 size=       1KiB time=00:00:02.08 bitrate=   2.2kbits/s speed=0.0236x elapsed=0:01:28.20    \nframe=  106 fps=1.2 q=46.0 size=       1KiB time=00:00:02.10 bitrate=   2.1kbits/s speed=0.0237x elapsed=0:01:28.77    \nframe=  107 fps=1.2 q=48.0 size=       1KiB time=00:00:02.12 bitrate=   2.1kbits/s speed=0.0237x elapsed=0:01:29.41    \nframe=  107 fps=1.2 q=48.0 size=       1KiB time=00:00:02.12 bitrate=   2.1kbits/s speed=0.0236x elapsed=0:01:29.98    \nframe=  109 fps=1.2 q=45.0 size=       1KiB time=00:00:02.16 bitrate=   2.1kbits/s speed=0.0239x elapsed=0:01:30.54    \nframe=  110 fps=1.2 q=46.0 size=       1KiB time=00:00:02.18 bitrate=   2.1kbits/s speed=0.0239x elapsed=0:01:31.08    \nframe=  110 fps=1.2 q=46.0 size=       1KiB time=00:00:02.18 bitrate=   2.1kbits/s speed=0.0238x elapsed=0:01:31.60    \nframe=  111 fps=1.2 q=48.0 size=       1KiB time=00:00:02.20 bitrate=   2.0kbits/s speed=0.0239x elapsed=0:01:32.12    \nframe=  111 fps=1.2 q=48.0 size=       1KiB time=00:00:02.20 bitrate=   2.0kbits/s speed=0.0237x elapsed=0:01:32.65    \nframe=  113 fps=1.2 q=30.0 size=       1KiB time=00:00:02.24 bitrate=   2.0kbits/s speed=0.024x elapsed=0:01:33.18    \nframe=  114 fps=1.2 q=46.0 size=       1KiB time=00:00:02.26 bitrate=   2.0kbits/s speed=0.0241x elapsed=0:01:33.70    \nframe=  114 fps=1.2 q=46.0 size=       1KiB time=00:00:02.26 bitrate=   2.0kbits/s speed=0.024x elapsed=0:01:34.22    \nframe=  115 fps=1.2 q=48.0 size=       1KiB time=00:00:02.28 bitrate=   2.0kbits/s speed=0.0241x elapsed=0:01:34.76    \nframe=  116 fps=1.2 q=38.0 size=       1KiB time=00:00:02.30 bitrate=   2.0kbits/s speed=0.0241x elapsed=0:01:35.31    \nframe=  116 fps=1.2 q=38.0 size=       1KiB time=00:00:02.30 bitrate=   2.0kbits/s speed=0.024x elapsed=0:01:35.96    \nframe=  117 fps=1.2 q=47.0 size=       1KiB time=00:00:02.32 bitrate=   1.9kbits/s speed=0.024x elapsed=0:01:36.52    \nframe=  118 fps=1.2 q=45.0 size=       1KiB time=00:00:02.34 bitrate=   1.9kbits/s speed=0.0241x elapsed=0:01:37.10    \nframe=  118 fps=1.2 q=45.0 size=       1KiB time=00:00:02.34 bitrate=   1.9kbits/s speed=0.024x elapsed=0:01:37.66    \nframe=  118 fps=1.2 q=45.0 size=       1KiB time=00:00:02.34 bitrate=   1.9kbits/s speed=0.0238x elapsed=0:01:38.24    \nframe=  119 fps=1.2 q=46.0 size=       1KiB time=00:00:02.36 bitrate=   1.9kbits/s speed=0.0239x elapsed=0:01:38.76    \nframe=  119 fps=1.2 q=46.0 size=       1KiB time=00:00:02.36 bitrate=   1.9kbits/s speed=0.0238x elapsed=0:01:39.31    \nframe=  119 fps=1.2 q=46.0 size=       1KiB time=00:00:02.36 bitrate=   1.9kbits/s speed=0.0236x elapsed=0:01:39.84    \nframe=  121 fps=1.2 q=43.0 size=       1KiB time=00:00:02.38 bitrate=   1.9kbits/s speed=0.0237x elapsed=0:01:40.42    \nframe=  122 fps=1.2 q=45.0 size=       1KiB time=00:00:02.42 bitrate=   1.9kbits/s speed=0.024x elapsed=0:01:41.00    \nframe=  123 fps=1.2 q=46.0 size=       1KiB time=00:00:02.44 bitrate=   1.8kbits/s speed=0.024x elapsed=0:01:41.58    \nframe=  123 fps=1.2 q=46.0 size=       1KiB time=00:00:02.44 bitrate=   1.8kbits/s speed=0.0239x elapsed=0:01:42.12    \nframe=  124 fps=1.2 q=45.0 size=       1KiB time=00:00:02.46 bitrate=   1.8kbits/s speed=0.024x elapsed=0:01:42.64    \nframe=  125 fps=1.2 q=45.0 size=       1KiB time=00:00:02.48 bitrate=   1.8kbits/s speed=0.024x elapsed=0:01:43.22    \nframe=  127 fps=1.2 q=46.0 size=       1KiB time=00:00:02.52 bitrate=   1.8kbits/s speed=0.0243x elapsed=0:01:43.81    \nframe=  128 fps=1.2 q=45.0 size=       1KiB time=00:00:02.54 bitrate=   1.8kbits/s speed=0.0243x elapsed=0:01:44.38    \nframe=  130 fps=1.2 q=45.0 size=       1KiB time=00:00:02.58 bitrate=   1.7kbits/s speed=0.0246x elapsed=0:01:44.91    \nframe=  131 fps=1.2 q=46.0 size=       1KiB time=00:00:02.60 bitrate=   1.7kbits/s speed=0.0247x elapsed=0:01:45.43    \nframe=  131 fps=1.2 q=46.0 size=       1KiB time=00:00:02.60 bitrate=   1.7kbits/s speed=0.0245x elapsed=0:01:45.95    \nframe=  132 fps=1.2 q=38.0 size=       1KiB time=00:00:02.62 bitrate=   1.7kbits/s speed=0.0246x elapsed=0:01:46.50    \nframe=  133 fps=1.2 q=46.0 size=       1KiB time=00:00:02.64 bitrate=   1.7kbits/s speed=0.0247x elapsed=0:01:47.08    \nframe=  134 fps=1.2 q=45.0 size=       1KiB time=00:00:02.66 bitrate=   1.7kbits/s speed=0.0247x elapsed=0:01:47.62    \nframe=  134 fps=1.2 q=45.0 size=       1KiB time=00:00:02.66 bitrate=   1.7kbits/s speed=0.0246x elapsed=0:01:48.15    \nframe=  135 fps=1.2 q=46.0 size=       1KiB time=00:00:02.68 bitrate=   1.7kbits/s speed=0.0247x elapsed=0:01:48.69    \nframe=  135 fps=1.2 q=46.0 size=       1KiB time=00:00:02.68 bitrate=   1.7kbits/s speed=0.0245x elapsed=0:01:49.24    \nframe=  136 fps=1.2 q=45.0 size=       1KiB time=00:00:02.70 bitrate=   1.7kbits/s speed=0.0246x elapsed=0:01:49.76    \nframe=  139 fps=1.3 q=48.0 size=       1KiB time=00:00:02.74 bitrate=   1.6kbits/s speed=0.0248x elapsed=0:01:50.28    \nframe=  139 fps=1.3 q=48.0 size=       1KiB time=00:00:02.76 bitrate=   1.6kbits/s speed=0.0249x elapsed=0:01:50.94    \nframe=  140 fps=1.3 q=47.0 size=       1KiB time=00:00:02.78 bitrate=   1.6kbits/s speed=0.0249x elapsed=0:01:51.49    \nframe=  141 fps=1.3 q=45.0 size=       1KiB time=00:00:02.78 bitrate=   1.6kbits/s speed=0.0248x elapsed=0:01:52.05    \nframe=  141 fps=1.3 q=45.0 size=       1KiB time=00:00:02.80 bitrate=   1.6kbits/s speed=0.0249x elapsed=0:01:52.62    \nframe=  143 fps=1.3 q=48.0 size=       1KiB time=00:00:02.84 bitrate=   1.6kbits/s speed=0.0251x elapsed=0:01:53.21    \nframe=  143 fps=1.3 q=48.0 size=       1KiB time=00:00:02.84 bitrate=   1.6kbits/s speed=0.025x elapsed=0:01:53.72    \nframe=  145 fps=1.3 q=30.0 size=       1KiB time=00:00:02.88 bitrate=   1.6kbits/s speed=0.0252x elapsed=0:01:54.25    \nframe=  146 fps=1.3 q=47.0 size=       1KiB time=00:00:02.90 bitrate=   1.6kbits/s speed=0.0253x elapsed=0:01:54.79    \nframe=  147 fps=1.3 q=48.0 size=       1KiB time=00:00:02.92 bitrate=   1.5kbits/s speed=0.0253x elapsed=0:01:55.34    \nframe=  147 fps=1.3 q=48.0 size=       1KiB time=00:00:02.92 bitrate=   1.5kbits/s speed=0.0252x elapsed=0:01:55.89    \nframe=  149 fps=1.3 q=47.0 size=       1KiB time=00:00:02.96 bitrate=   1.5kbits/s speed=0.0254x elapsed=0:01:56.40    \nframe=  150 fps=1.3 q=47.0 size=       1KiB time=00:00:02.98 bitrate=   1.5kbits/s speed=0.0255x elapsed=0:01:56.94    \nframe=  151 fps=1.3 q=47.0 size=       1KiB time=00:00:03.00 bitrate=   1.5kbits/s speed=0.0255x elapsed=0:01:57.45    \nframe=  151 fps=1.3 q=47.0 size=       1KiB time=00:00:03.00 bitrate=   1.5kbits/s speed=0.0254x elapsed=0:01:57.97    \nframe=  152 fps=1.3 q=47.0 size=       1KiB time=00:00:03.02 bitrate=   1.5kbits/s speed=0.0255x elapsed=0:01:58.51    \nframe=  154 fps=1.3 q=47.0 size=       1KiB time=00:00:03.06 bitrate=   1.5kbits/s speed=0.0257x elapsed=0:01:59.04    \nframe=  155 fps=1.3 q=47.0 size=       1KiB time=00:00:03.08 bitrate=   1.5kbits/s speed=0.0258x elapsed=0:01:59.59    \nframe=  155 fps=1.3 q=47.0 size=       1KiB time=00:00:03.08 bitrate=   1.5kbits/s speed=0.0256x elapsed=0:02:00.14    \nframe=  156 fps=1.3 q=44.0 size=       1KiB time=00:00:03.10 bitrate=   1.5kbits/s speed=0.0257x elapsed=0:02:00.67    \nframe=  157 fps=1.3 q=46.0 size=       1KiB time=00:00:03.12 bitrate=   1.4kbits/s speed=0.0257x elapsed=0:02:01.21    \nframe=  159 fps=1.3 q=47.0 size=       1KiB time=00:00:03.16 bitrate=   1.4kbits/s speed=0.0259x elapsed=0:02:01.83    \nframe=  160 fps=1.3 q=47.0 size=       1KiB time=00:00:03.18 bitrate=   1.4kbits/s speed=0.026x elapsed=0:02:02.46    \nframe=  161 fps=1.3 q=30.0 size=       1KiB time=00:00:03.20 bitrate=   1.4kbits/s speed=0.026x elapsed=0:02:02.97    \nframe=  162 fps=1.3 q=47.0 size=       1KiB time=00:00:03.22 bitrate=   1.4kbits/s speed=0.0261x elapsed=0:02:03.48    \nframe=  164 fps=1.3 q=47.0 size=       1KiB time=00:00:03.26 bitrate=   1.4kbits/s speed=0.0263x elapsed=0:02:04.01    \nframe=  165 fps=1.3 q=47.0 size=       1KiB time=00:00:03.28 bitrate=   1.4kbits/s speed=0.0263x elapsed=0:02:04.54    \nframe=  166 fps=1.3 q=47.0 size=       1KiB time=00:00:03.30 bitrate=   1.4kbits/s speed=0.0264x elapsed=0:02:05.04    \nframe=  167 fps=1.3 q=48.0 size=       1KiB time=00:00:03.32 bitrate=   1.4kbits/s speed=0.0264x elapsed=0:02:05.57    \nframe=  168 fps=1.3 q=40.0 size=       1KiB time=00:00:03.34 bitrate=   1.3kbits/s speed=0.0265x elapsed=0:02:06.07    \nframe=  171 fps=1.4 q=48.0 size=       1KiB time=00:00:03.40 bitrate=   1.3kbits/s speed=0.0269x elapsed=0:02:06.59    \nframe=  172 fps=1.4 q=44.0 size=       1KiB time=00:00:03.42 bitrate=   1.3kbits/s speed=0.0269x elapsed=0:02:07.11    \nframe=  173 fps=1.4 q=46.0 size=       1KiB time=00:00:03.44 bitrate=   1.3kbits/s speed=0.027x elapsed=0:02:07.62    \nframe=  174 fps=1.4 q=46.0 size=       1KiB time=00:00:03.46 bitrate=   1.3kbits/s speed=0.027x elapsed=0:02:08.14    \nframe=  175 fps=1.4 q=46.0 size=       1KiB time=00:00:03.48 bitrate=   1.3kbits/s speed=0.027x elapsed=0:02:08.66    \nframe=  176 fps=1.4 q=46.0 size=       1KiB time=00:00:03.50 bitrate=   1.3kbits/s speed=0.0271x elapsed=0:02:09.17    \nframe=  178 fps=1.4 q=47.0 size=       1KiB time=00:00:03.54 bitrate=   1.3kbits/s speed=0.0273x elapsed=0:02:09.69    \nframe=  178 fps=1.4 q=47.0 size=       1KiB time=00:00:03.54 bitrate=   1.3kbits/s speed=0.0272x elapsed=0:02:10.20    \nframe=  180 fps=1.4 q=47.0 size=       1KiB time=00:00:03.58 bitrate=   1.3kbits/s speed=0.0274x elapsed=0:02:10.71    \nframe=  182 fps=1.4 q=47.0 size=       1KiB time=00:00:03.62 bitrate=   1.2kbits/s speed=0.0276x elapsed=0:02:11.23    \nframe=  183 fps=1.4 q=47.0 size=       1KiB time=00:00:03.64 bitrate=   1.2kbits/s speed=0.0276x elapsed=0:02:11.74    \nframe=  184 fps=1.4 q=47.0 size=       1KiB time=00:00:03.66 bitrate=   1.2kbits/s speed=0.0277x elapsed=0:02:12.26    \nframe=  186 fps=1.4 q=47.0 size=       1KiB time=00:00:03.70 bitrate=   1.2kbits/s speed=0.0279x elapsed=0:02:12.78    \nframe=  188 fps=1.4 q=47.0 size=       1KiB time=00:00:03.74 bitrate=   1.2kbits/s speed=0.0281x elapsed=0:02:13.30    \nframe=  189 fps=1.4 q=47.0 size=       1KiB time=00:00:03.76 bitrate=   1.2kbits/s speed=0.0281x elapsed=0:02:13.81    \nframe=  191 fps=1.4 q=47.0 size=       1KiB time=00:00:03.80 bitrate=   1.2kbits/s speed=0.0283x elapsed=0:02:14.33    \nframe=  192 fps=1.4 q=47.0 size=       1KiB time=00:00:03.82 bitrate=   1.2kbits/s speed=0.0283x elapsed=0:02:14.85    \nframe=  193 fps=1.4 q=31.0 size=       1KiB time=00:00:03.84 bitrate=   1.2kbits/s speed=0.0284x elapsed=0:02:15.36    \nframe=  194 fps=1.4 q=47.0 size=       1KiB time=00:00:03.86 bitrate=   1.2kbits/s speed=0.0284x elapsed=0:02:15.87    \nframe=  194 fps=1.4 q=47.0 size=       1KiB time=00:00:03.86 bitrate=   1.2kbits/s speed=0.0283x elapsed=0:02:16.38    \nframe=  196 fps=1.4 q=47.0 size=       1KiB time=00:00:03.90 bitrate=   1.2kbits/s speed=0.0285x elapsed=0:02:16.91    \nframe=  197 fps=1.4 q=48.0 size=       1KiB time=00:00:03.92 bitrate=   1.1kbits/s speed=0.0285x elapsed=0:02:17.42    \nframe=  199 fps=1.4 q=47.0 size=       1KiB time=00:00:03.96 bitrate=   1.1kbits/s speed=0.0287x elapsed=0:02:17.93    \nframe=  200 fps=1.4 q=47.0 size=       1KiB time=00:00:03.98 bitrate=   1.1kbits/s speed=0.0287x elapsed=0:02:18.46    \nframe=  200 fps=1.4 q=47.0 size=       1KiB time=00:00:03.98 bitrate=   1.1kbits/s speed=0.0286x elapsed=0:02:18.97    \nframe=  203 fps=1.5 q=47.0 size=       1KiB time=00:00:04.04 bitrate=   1.1kbits/s speed=0.029x elapsed=0:02:19.49    \nframe=  203 fps=1.4 q=47.0 size=       1KiB time=00:00:04.04 bitrate=   1.1kbits/s speed=0.0289x elapsed=0:02:20.00    \nframe=  204 fps=1.5 q=48.0 size=       1KiB time=00:00:04.06 bitrate=   1.1kbits/s speed=0.0289x elapsed=0:02:20.51    \nframe=  205 fps=1.5 q=48.0 size=       1KiB time=00:00:04.08 bitrate=   1.1kbits/s speed=0.0289x elapsed=0:02:21.03    \nframe=  207 fps=1.5 q=46.0 size=       1KiB time=00:00:04.12 bitrate=   1.1kbits/s speed=0.0291x elapsed=0:02:21.55    \nframe=  209 fps=1.5 q=31.0 size=       1KiB time=00:00:04.16 bitrate=   1.1kbits/s speed=0.0293x elapsed=0:02:22.07    \nframe=  211 fps=1.5 q=49.0 size=       1KiB time=00:00:04.20 bitrate=   1.1kbits/s speed=0.0295x elapsed=0:02:22.57    \nframe=  212 fps=1.5 q=49.0 size=       1KiB time=00:00:04.22 bitrate=   1.1kbits/s speed=0.0295x elapsed=0:02:23.10    \nframe=  213 fps=1.5 q=48.0 size=       1KiB time=00:00:04.24 bitrate=   1.1kbits/s speed=0.0295x elapsed=0:02:23.61    \nframe=  214 fps=1.5 q=49.0 size=       1KiB time=00:00:04.26 bitrate=   1.1kbits/s speed=0.0296x elapsed=0:02:24.13    \nframe=  215 fps=1.5 q=49.0 size=       1KiB time=00:00:04.28 bitrate=   1.1kbits/s speed=0.0296x elapsed=0:02:24.64    \nframe=  215 fps=1.5 q=49.0 size=       1KiB time=00:00:04.28 bitrate=   1.1kbits/s speed=0.0295x elapsed=0:02:25.16    \nframe=  218 fps=1.5 q=50.0 size=       1KiB time=00:00:04.34 bitrate=   1.0kbits/s speed=0.0298x elapsed=0:02:25.68    \nframe=  219 fps=1.5 q=49.0 size=       1KiB time=00:00:04.36 bitrate=   1.0kbits/s speed=0.0298x elapsed=0:02:26.18    \nframe=  219 fps=1.5 q=49.0 size=       1KiB time=00:00:04.36 bitrate=   1.0kbits/s speed=0.0297x elapsed=0:02:26.70    \nframe=  221 fps=1.5 q=46.0 size=       1KiB time=00:00:04.40 bitrate=   1.0kbits/s speed=0.0299x elapsed=0:02:27.22    \nframe=  222 fps=1.5 q=50.0 size=       1KiB time=00:00:04.42 bitrate=   1.0kbits/s speed=0.0299x elapsed=0:02:27.74    \nframe=  223 fps=1.5 q=49.0 size=       1KiB time=00:00:04.44 bitrate=   1.0kbits/s speed=0.0299x elapsed=0:02:28.25    \nframe=  226 fps=1.5 q=51.0 size=       1KiB time=00:00:04.50 bitrate=   1.0kbits/s speed=0.0302x elapsed=0:02:28.76    \nframe=  228 fps=1.5 q=51.0 size=       1KiB time=00:00:04.54 bitrate=   1.0kbits/s speed=0.0304x elapsed=0:02:29.28    \nframe=  230 fps=1.5 q=51.0 size=       1KiB time=00:00:04.58 bitrate=   1.0kbits/s speed=0.0306x elapsed=0:02:29.79    \nframe=  230 fps=1.5 q=51.0 size=       1KiB time=00:00:04.58 bitrate=   1.0kbits/s speed=0.0305x elapsed=0:02:30.31    \nframe=  230 fps=1.5 q=51.0 size=       1KiB time=00:00:04.58 bitrate=   1.0kbits/s speed=0.0304x elapsed=0:02:30.82    \nframe=  231 fps=1.5 q=50.0 size=       1KiB time=00:00:04.60 bitrate=   1.0kbits/s speed=0.0304x elapsed=0:02:31.33    \nframe=  232 fps=1.5 q=51.0 size=       1KiB time=00:00:04.62 bitrate=   1.0kbits/s speed=0.0304x elapsed=0:02:31.85    \nframe=  234 fps=1.5 q=50.0 size=       1KiB time=00:00:04.66 bitrate=   1.0kbits/s speed=0.0306x elapsed=0:02:32.38    \nframe=  235 fps=1.5 q=49.0 size=       1KiB time=00:00:04.68 bitrate=   1.0kbits/s speed=0.0306x elapsed=0:02:32.89    \nframe=  235 fps=1.5 q=49.0 size=       1KiB time=00:00:04.68 bitrate=   1.0kbits/s speed=0.0305x elapsed=0:02:33.40    \nframe=  236 fps=1.5 q=50.0 size=       1KiB time=00:00:04.70 bitrate=   1.0kbits/s speed=0.0305x elapsed=0:02:33.93    \nframe=  238 fps=1.5 q=50.0 size=       1KiB time=00:00:04.74 bitrate=   0.9kbits/s speed=0.0307x elapsed=0:02:34.44    \nframe=  240 fps=1.5 q=50.0 size=       1KiB time=00:00:04.78 bitrate=   0.9kbits/s speed=0.0308x elapsed=0:02:34.95    \nframe=  242 fps=1.6 q=51.0 size=       1KiB time=00:00:04.82 bitrate=   0.9kbits/s speed=0.031x elapsed=0:02:35.48    \nframe=  242 fps=1.6 q=51.0 size=       1KiB time=00:00:04.82 bitrate=   0.9kbits/s speed=0.0309x elapsed=0:02:36.00    \nframe=  244 fps=1.6 q=51.0 size=       1KiB time=00:00:04.86 bitrate=   0.9kbits/s speed=0.031x elapsed=0:02:36.52    \nframe=  246 fps=1.6 q=51.0 size=       1KiB time=00:00:04.90 bitrate=   0.9kbits/s speed=0.0312x elapsed=0:02:37.04    \nframe=  247 fps=1.6 q=50.0 size=       1KiB time=00:00:04.92 bitrate=   0.9kbits/s speed=0.0312x elapsed=0:02:37.54    \nframe=  247 fps=1.6 q=50.0 size=       1KiB time=00:00:04.92 bitrate=   0.9kbits/s speed=0.0311x elapsed=0:02:38.06    \nframe=  250 fps=1.6 q=51.0 size=       1KiB time=00:00:04.98 bitrate=   0.9kbits/s speed=0.0314x elapsed=0:02:38.58    \nframe=  251 fps=1.6 q=50.0 size=       1KiB time=00:00:05.00 bitrate=   0.9kbits/s speed=0.0314x elapsed=0:02:39.09    \nframe=  252 fps=1.6 q=51.0 size=       1KiB time=00:00:05.02 bitrate=   0.9kbits/s speed=0.0315x elapsed=0:02:39.60    \nframe=  254 fps=1.6 q=51.0 size=    1280KiB time=00:00:05.06 bitrate=2072.3kbits/s speed=0.0316x elapsed=0:02:40.13    \nframe=  255 fps=1.6 q=49.0 size=    1280KiB time=00:00:05.08 bitrate=2064.1kbits/s speed=0.0316x elapsed=0:02:40.64    \nframe=  257 fps=1.6 q=34.0 size=    1280KiB time=00:00:05.12 bitrate=2048.0kbits/s speed=0.0318x elapsed=0:02:41.15    \nframe=  258 fps=1.6 q=52.0 size=    1280KiB time=00:00:05.14 bitrate=2040.0kbits/s speed=0.0318x elapsed=0:02:41.70    \nframe=  260 fps=1.6 q=52.0 size=    1280KiB time=00:00:05.18 bitrate=2024.3kbits/s speed=0.0319x elapsed=0:02:42.29    \nframe=  262 fps=1.6 q=52.0 size=    1280KiB time=00:00:05.20 bitrate=2016.5kbits/s speed=0.0319x elapsed=0:02:42.88    \nframe=  263 fps=1.6 q=51.0 size=    1280KiB time=00:00:05.24 bitrate=2001.1kbits/s speed=0.0321x elapsed=0:02:43.45    \nframe=  265 fps=1.6 q=45.0 size=    1280KiB time=00:00:05.26 bitrate=1993.5kbits/s speed=0.0321x elapsed=0:02:44.01    \nframe=  266 fps=1.6 q=52.0 size=    1280KiB time=00:00:05.30 bitrate=1978.4kbits/s speed=0.0322x elapsed=0:02:44.59    \nframe=  268 fps=1.6 q=52.0 size=    1280KiB time=00:00:05.34 bitrate=1963.6kbits/s speed=0.0323x elapsed=0:02:45.10    \nframe=  269 fps=1.6 q=49.0 size=    1280KiB time=00:00:05.36 bitrate=1956.3kbits/s speed=0.0324x elapsed=0:02:45.66    \nframe=  272 fps=1.6 q=52.0 size=    1280KiB time=00:00:05.42 bitrate=1934.6kbits/s speed=0.0326x elapsed=0:02:46.23    \nframe=  275 fps=1.6 q=51.0 size=    1280KiB time=00:00:05.48 bitrate=1913.5kbits/s speed=0.0329x elapsed=0:02:46.81    \nframe=  277 fps=1.7 q=49.0 size=    1280KiB time=00:00:05.52 bitrate=1899.6kbits/s speed=0.033x elapsed=0:02:47.33    \nframe=  277 fps=1.6 q=49.0 size=    1280KiB time=00:00:05.52 bitrate=1899.6kbits/s speed=0.0329x elapsed=0:02:47.88    \nframe=  279 fps=1.7 q=51.0 size=    1280KiB time=00:00:05.56 bitrate=1885.9kbits/s speed=0.033x elapsed=0:02:48.40    \nframe=  282 fps=1.7 q=52.0 size=    1280KiB time=00:00:05.62 bitrate=1865.8kbits/s speed=0.0333x elapsed=0:02:48.93    \nframe=  282 fps=1.7 q=52.0 size=    1280KiB time=00:00:05.62 bitrate=1865.8kbits/s speed=0.0332x elapsed=0:02:49.50    \nframe=  285 fps=1.7 q=49.0 size=    1280KiB time=00:00:05.68 bitrate=1846.1kbits/s speed=0.0334x elapsed=0:02:50.03    \nframe=  287 fps=1.7 q=45.0 size=    1280KiB time=00:00:05.72 bitrate=1833.2kbits/s speed=0.0335x elapsed=0:02:50.60    \nframe=  288 fps=1.7 q=50.0 size=    1280KiB time=00:00:05.72 bitrate=1833.2kbits/s speed=0.0334x elapsed=0:02:51.13    \nframe=  290 fps=1.7 q=53.0 size=    1280KiB time=00:00:05.78 bitrate=1814.1kbits/s speed=0.0337x elapsed=0:02:51.75    \nframe=  291 fps=1.7 q=52.0 size=    1280KiB time=00:00:05.80 bitrate=1807.9kbits/s speed=0.0337x elapsed=0:02:52.26    \nframe=  293 fps=1.7 q=50.0 size=    1280KiB time=00:00:05.84 bitrate=1795.5kbits/s speed=0.0338x elapsed=0:02:52.78    \nframe=  294 fps=1.7 q=53.0 size=    1280KiB time=00:00:05.86 bitrate=1789.4kbits/s speed=0.0338x elapsed=0:02:53.31    \nframe=  295 fps=1.7 q=52.0 size=    1280KiB time=00:00:05.88 bitrate=1783.3kbits/s speed=0.0338x elapsed=0:02:53.88    \nframe=  297 fps=1.7 q=46.0 size=    1280KiB time=00:00:05.92 bitrate=1771.2kbits/s speed=0.0339x elapsed=0:02:54.41    \nframe=  300 fps=1.7 q=52.0 size=    1280KiB time=00:00:05.98 bitrate=1753.5kbits/s speed=0.0342x elapsed=0:02:54.94    \nframe=  302 fps=1.7 q=52.0 size=    1280KiB time=00:00:06.02 bitrate=1741.8kbits/s speed=0.0343x elapsed=0:02:55.50    \nframe=  303 fps=1.7 q=51.0 size=    1280KiB time=00:00:06.04 bitrate=1736.1kbits/s speed=0.0343x elapsed=0:02:56.05    \nframe=  305 fps=1.7 q=34.0 size=    1280KiB time=00:00:06.08 bitrate=1724.6kbits/s speed=0.0344x elapsed=0:02:56.59    \nframe=  308 fps=1.7 q=53.0 size=    1280KiB time=00:00:06.10 bitrate=1719.0kbits/s speed=0.0344x elapsed=0:02:57.32    \nframe=  310 fps=1.7 q=53.0 size=    1280KiB time=00:00:06.16 bitrate=1702.2kbits/s speed=0.0346x elapsed=0:02:58.18    \nframe=  311 fps=1.7 q=52.0 size=    1280KiB time=00:00:06.18 bitrate=1696.7kbits/s speed=0.0345x elapsed=0:02:58.94    \nframe=  312 fps=1.7 q=41.0 size=    1280KiB time=00:00:06.20 bitrate=1691.3kbits/s speed=0.0345x elapsed=0:02:59.68    \nframe=  315 fps=1.7 q=50.0 size=    1280KiB time=00:00:06.28 bitrate=1669.7kbits/s speed=0.0348x elapsed=0:03:00.46    \nframe=  316 fps=1.7 q=44.0 size=    1280KiB time=00:00:06.30 bitrate=1664.4kbits/s speed=0.0348x elapsed=0:03:01.27    \nframe=  317 fps=1.7 q=46.0 size=    1280KiB time=00:00:06.32 bitrate=1659.1kbits/s speed=0.0348x elapsed=0:03:01.79    \nframe=  319 fps=1.7 q=44.0 size=    1280KiB time=00:00:06.36 bitrate=1648.7kbits/s speed=0.0349x elapsed=0:03:02.31    \nframe=  319 fps=1.7 q=44.0 size=    1280KiB time=00:00:06.36 bitrate=1648.7kbits/s speed=0.0348x elapsed=0:03:02.84    \nframe=  320 fps=1.7 q=48.0 size=    1280KiB time=00:00:06.38 bitrate=1643.5kbits/s speed=0.0348x elapsed=0:03:03.38    \nframe=  320 fps=1.7 q=48.0 size=    1280KiB time=00:00:06.38 bitrate=1643.5kbits/s speed=0.0347x elapsed=0:03:03.95    \nframe=  322 fps=1.7 q=24.0 size=    1280KiB time=00:00:06.42 bitrate=1633.3kbits/s speed=0.0348x elapsed=0:03:04.47    \nframe=  323 fps=1.7 q=52.0 size=    1536KiB time=00:00:06.44 bitrate=1953.9kbits/s speed=0.0348x elapsed=0:03:05.03    \nframe=  323 fps=1.7 q=52.0 size=    1536KiB time=00:00:06.44 bitrate=1953.9kbits/s speed=0.0347x elapsed=0:03:05.59    \nframe=  325 fps=1.7 q=52.0 size=    1536KiB time=00:00:06.48 bitrate=1941.8kbits/s speed=0.0348x elapsed=0:03:06.14    \nframe=  326 fps=1.7 q=49.0 size=    1536KiB time=00:00:06.50 bitrate=1935.8kbits/s speed=0.0348x elapsed=0:03:06.67    \nframe=  327 fps=1.7 q=52.0 size=    1536KiB time=00:00:06.52 bitrate=1929.9kbits/s speed=0.0348x elapsed=0:03:07.20    \nframe=  327 fps=1.7 q=52.0 size=    1536KiB time=00:00:06.52 bitrate=1929.9kbits/s speed=0.0347x elapsed=0:03:07.76    \nframe=  328 fps=1.7 q=51.0 size=    1536KiB time=00:00:06.54 bitrate=1924.0kbits/s speed=0.0347x elapsed=0:03:08.27    \nframe=  329 fps=1.7 q=49.0 size=    1536KiB time=00:00:06.56 bitrate=1918.1kbits/s speed=0.0347x elapsed=0:03:08.87    \nframe=  330 fps=1.7 q=44.0 size=    1536KiB time=00:00:06.58 bitrate=1912.3kbits/s speed=0.0347x elapsed=0:03:09.48    \nframe=  333 fps=1.8 q=51.0 size=    1536KiB time=00:00:06.64 bitrate=1895.0kbits/s speed=0.0349x elapsed=0:03:10.06    \nframe=  335 fps=1.8 q=51.0 size=    1536KiB time=00:00:06.68 bitrate=1883.7kbits/s speed=0.035x elapsed=0:03:10.59    \nframe=  336 fps=1.8 q=50.0 size=    1536KiB time=00:00:06.70 bitrate=1878.0kbits/s speed=0.0351x elapsed=0:03:11.12    \nframe=  336 fps=1.8 q=50.0 size=    1536KiB time=00:00:06.70 bitrate=1878.0kbits/s speed=0.035x elapsed=0:03:11.70    \nframe=  338 fps=1.8 q=34.0 size=    1536KiB time=00:00:06.74 bitrate=1866.9kbits/s speed=0.0351x elapsed=0:03:12.26    \nframe=  340 fps=1.8 q=50.0 size=    1536KiB time=00:00:06.78 bitrate=1855.9kbits/s speed=0.0352x elapsed=0:03:12.80    \nframe=  341 fps=1.8 q=51.0 size=    1536KiB time=00:00:06.80 bitrate=1850.4kbits/s speed=0.0352x elapsed=0:03:13.32    \nframe=  342 fps=1.8 q=48.0 size=    1536KiB time=00:00:06.82 bitrate=1845.0kbits/s speed=0.0352x elapsed=0:03:13.85    \nframe=  344 fps=1.8 q=50.0 size=    1536KiB time=00:00:06.86 bitrate=1834.2kbits/s speed=0.0353x elapsed=0:03:14.38    \nframe=  344 fps=1.8 q=50.0 size=    1536KiB time=00:00:06.86 bitrate=1834.2kbits/s speed=0.0352x elapsed=0:03:14.90    \nframe=  346 fps=1.8 q=44.0 size=    1536KiB time=00:00:06.90 bitrate=1823.6kbits/s speed=0.0353x elapsed=0:03:15.42    \nframe=  348 fps=1.8 q=50.0 size=    1536KiB time=00:00:06.94 bitrate=1813.1kbits/s speed=0.0354x elapsed=0:03:15.94    \nframe=  349 fps=1.8 q=51.0 size=    1536KiB time=00:00:06.96 bitrate=1807.9kbits/s speed=0.0354x elapsed=0:03:16.48    \nframe=  351 fps=1.8 q=51.0 size=    1536KiB time=00:00:06.98 bitrate=1802.7kbits/s speed=0.0354x elapsed=0:03:17.00    \nframe=  352 fps=1.8 q=49.0 size=    1536KiB time=00:00:07.02 bitrate=1792.4kbits/s speed=0.0355x elapsed=0:03:17.57    \nframe=  353 fps=1.8 q=51.0 size=    1536KiB time=00:00:07.02 bitrate=1792.4kbits/s speed=0.0354x elapsed=0:03:18.14    \nframe=  353 fps=1.8 q=51.0 size=    1536KiB time=00:00:07.04 bitrate=1787.3kbits/s speed=0.0354x elapsed=0:03:18.70    \nframe=  355 fps=1.8 q=52.0 size=    1536KiB time=00:00:07.08 bitrate=1777.2kbits/s speed=0.0355x elapsed=0:03:19.25    \nframe=  358 fps=1.8 q=49.0 size=    1536KiB time=00:00:07.14 bitrate=1762.3kbits/s speed=0.0357x elapsed=0:03:19.82    \nframe=  359 fps=1.8 q=52.0 size=    1536KiB time=00:00:07.16 bitrate=1757.4kbits/s speed=0.0357x elapsed=0:03:20.36    \nframe=  359 fps=1.8 q=52.0 size=    1536KiB time=00:00:07.16 bitrate=1757.4kbits/s speed=0.0356x elapsed=0:03:20.87    \nframe=  360 fps=1.8 q=51.0 size=    1536KiB time=00:00:07.18 bitrate=1752.5kbits/s speed=0.0356x elapsed=0:03:21.45    \nframe=  361 fps=1.8 q=44.0 size=    1536KiB time=00:00:07.20 bitrate=1747.6kbits/s speed=0.0356x elapsed=0:03:21.99    \nframe=  363 fps=1.8 q=52.0 size=    1536KiB time=00:00:07.22 bitrate=1742.8kbits/s speed=0.0356x elapsed=0:03:22.55    \nframe=  364 fps=1.8 q=50.0 size=    1536KiB time=00:00:07.26 bitrate=1733.2kbits/s speed=0.0357x elapsed=0:03:23.13    \nframe=  365 fps=1.8 q=52.0 size=    1536KiB time=00:00:07.28 bitrate=1728.4kbits/s speed=0.0357x elapsed=0:03:23.69    \nframe=  366 fps=1.8 q=47.0 size=    1536KiB time=00:00:07.30 bitrate=1723.7kbits/s speed=0.0357x elapsed=0:03:24.28    \nframe=  368 fps=1.8 q=48.0 size=    1536KiB time=00:00:07.34 bitrate=1714.3kbits/s speed=0.0358x elapsed=0:03:24.94    \nframe=  369 fps=1.8 q=50.0 size=    1536KiB time=00:00:07.36 bitrate=1709.6kbits/s speed=0.0358x elapsed=0:03:25.56    \nframe=  371 fps=1.8 q=51.0 size=    1536KiB time=00:00:07.40 bitrate=1700.4kbits/s speed=0.0359x elapsed=0:03:26.13    \nframe=  373 fps=1.8 q=51.0 size=    1536KiB time=00:00:07.44 bitrate=1691.3kbits/s speed=0.036x elapsed=0:03:26.75    \nframe=  375 fps=1.8 q=51.0 size=    1536KiB time=00:00:07.48 bitrate=1682.2kbits/s speed=0.0361x elapsed=0:03:27.36    \nframe=  375 fps=1.8 q=51.0 size=    1536KiB time=00:00:07.48 bitrate=1682.2kbits/s speed=0.036x elapsed=0:03:27.94    \nframe=  376 fps=1.8 q=50.0 size=    1536KiB time=00:00:07.50 bitrate=1677.7kbits/s speed=0.036x elapsed=0:03:28.48    \nframe=  377 fps=1.8 q=51.0 size=    1536KiB time=00:00:07.52 bitrate=1673.3kbits/s speed=0.036x elapsed=0:03:29.04    \nframe=  379 fps=1.8 q=51.0 size=    1536KiB time=00:00:07.56 bitrate=1664.4kbits/s speed=0.0361x elapsed=0:03:29.62    \nframe=  380 fps=1.8 q=51.0 size=    1536KiB time=00:00:07.60 bitrate=1655.6kbits/s speed=0.0361x elapsed=0:03:30.26    \nframe=  382 fps=1.8 q=46.0 size=    1536KiB time=00:00:07.62 bitrate=1651.3kbits/s speed=0.0362x elapsed=0:03:30.76    \nframe=  383 fps=1.8 q=51.0 size=    1536KiB time=00:00:07.64 bitrate=1647.0kbits/s speed=0.0362x elapsed=0:03:31.29    \nframe=  384 fps=1.8 q=49.0 size=    1536KiB time=00:00:07.66 bitrate=1642.7kbits/s speed=0.0362x elapsed=0:03:31.80    \nframe=  386 fps=1.8 q=35.0 size=    1536KiB time=00:00:07.70 bitrate=1634.1kbits/s speed=0.0363x elapsed=0:03:32.31    \nframe=  387 fps=1.8 q=51.0 size=    1536KiB time=00:00:07.72 bitrate=1629.9kbits/s speed=0.0363x elapsed=0:03:32.83    \nframe=  389 fps=1.8 q=51.0 size=    1536KiB time=00:00:07.76 bitrate=1621.5kbits/s speed=0.0364x elapsed=0:03:33.35    \nframe=  390 fps=1.8 q=48.0 size=    1536KiB time=00:00:07.78 bitrate=1617.3kbits/s speed=0.0364x elapsed=0:03:33.85    \nframe=  391 fps=1.8 q=51.0 size=    1536KiB time=00:00:07.80 bitrate=1613.2kbits/s speed=0.0364x elapsed=0:03:34.37    \nframe=  392 fps=1.8 q=50.0 size=    1536KiB time=00:00:07.82 bitrate=1609.1kbits/s speed=0.0364x elapsed=0:03:34.88    \nframe=  393 fps=1.8 q=51.0 size=    1536KiB time=00:00:07.84 bitrate=1605.0kbits/s speed=0.0364x elapsed=0:03:35.41    \nframe=  395 fps=1.8 q=51.0 size=    1536KiB time=00:00:07.88 bitrate=1596.8kbits/s speed=0.0365x elapsed=0:03:35.92    \nframe=  397 fps=1.8 q=51.0 size=    1536KiB time=00:00:07.92 bitrate=1588.8kbits/s speed=0.0366x elapsed=0:03:36.44    \nframe=  399 fps=1.8 q=48.0 size=    1536KiB time=00:00:07.96 bitrate=1580.8kbits/s speed=0.0367x elapsed=0:03:36.95    \nframe=  400 fps=1.8 q=50.0 size=    1536KiB time=00:00:07.98 bitrate=1576.8kbits/s speed=0.0367x elapsed=0:03:37.48    \nframe=  402 fps=1.8 q=35.0 size=    1536KiB time=00:00:08.02 bitrate=1568.9kbits/s speed=0.0368x elapsed=0:03:37.98    \nframe=  406 fps=1.9 q=49.0 size=    1536KiB time=00:00:08.10 bitrate=1553.4kbits/s speed=0.0371x elapsed=0:03:38.49    \nframe=  406 fps=1.9 q=49.0 size=    1536KiB time=00:00:08.10 bitrate=1553.4kbits/s speed=0.037x elapsed=0:03:39.01    \nframe=  408 fps=1.9 q=51.0 size=    1536KiB time=00:00:08.14 bitrate=1545.8kbits/s speed=0.0371x elapsed=0:03:39.53    \nframe=  410 fps=1.9 q=44.0 size=    1536KiB time=00:00:08.18 bitrate=1538.3kbits/s speed=0.0372x elapsed=0:03:40.05    \nframe=  410 fps=1.9 q=44.0 size=    1536KiB time=00:00:08.18 bitrate=1538.3kbits/s speed=0.0371x elapsed=0:03:40.57    \nframe=  410 fps=1.9 q=44.0 size=    1536KiB time=00:00:08.18 bitrate=1538.3kbits/s speed=0.037x elapsed=0:03:41.07    \nframe=  410 fps=1.9 q=44.0 size=    1536KiB time=00:00:08.18 bitrate=1538.3kbits/s speed=0.0369x elapsed=0:03:41.59    \nframe=  414 fps=1.9 q=49.0 size=    1536KiB time=00:00:08.26 bitrate=1523.4kbits/s speed=0.0372x elapsed=0:03:42.11    \nframe=  414 fps=1.9 q=49.0 size=    1536KiB time=00:00:08.26 bitrate=1523.4kbits/s speed=0.0371x elapsed=0:03:42.62    \nframe=  416 fps=1.9 q=51.0 size=    1536KiB time=00:00:08.30 bitrate=1516.0kbits/s speed=0.0372x elapsed=0:03:43.14    \nframe=  418 fps=1.9 q=35.0 size=    1536KiB time=00:00:08.34 bitrate=1508.7kbits/s speed=0.0373x elapsed=0:03:43.65    \nframe=  418 fps=1.9 q=35.0 size=    1536KiB time=00:00:08.34 bitrate=1508.7kbits/s speed=0.0372x elapsed=0:03:44.17    \nframe=  418 fps=1.9 q=35.0 size=    1536KiB time=00:00:08.34 bitrate=1508.7kbits/s speed=0.0371x elapsed=0:03:44.68    \nframe=  420 fps=1.9 q=50.0 size=    1536KiB time=00:00:08.38 bitrate=1501.5kbits/s speed=0.0372x elapsed=0:03:45.20    \nframe=  422 fps=1.9 q=48.0 size=    1536KiB time=00:00:08.42 bitrate=1494.4kbits/s speed=0.0373x elapsed=0:03:45.72    \nframe=  422 fps=1.9 q=48.0 size=    1536KiB time=00:00:08.42 bitrate=1494.4kbits/s speed=0.0372x elapsed=0:03:46.24    \nframe=  424 fps=1.9 q=50.0 size=    1536KiB time=00:00:08.46 bitrate=1487.3kbits/s speed=0.0373x elapsed=0:03:46.74    \nframe=  426 fps=1.9 q=44.0 size=    1536KiB time=00:00:08.50 bitrate=1480.3kbits/s speed=0.0374x elapsed=0:03:47.27    \nframe=  426 fps=1.9 q=44.0 size=    1536KiB time=00:00:08.50 bitrate=1480.3kbits/s speed=0.0373x elapsed=0:03:47.78    \nframe=  426 fps=1.9 q=44.0 size=    1536KiB time=00:00:08.50 bitrate=1480.3kbits/s speed=0.0372x elapsed=0:03:48.29    \nframe=  426 fps=1.9 q=44.0 size=    1536KiB time=00:00:08.50 bitrate=1480.3kbits/s speed=0.0371x elapsed=0:03:48.81    \nframe=  426 fps=1.9 q=44.0 size=    1536KiB time=00:00:08.50 bitrate=1480.3kbits/s speed=0.0371x elapsed=0:03:49.32    \nframe=  430 fps=1.9 q=47.0 size=    1536KiB time=00:00:08.58 bitrate=1466.5kbits/s speed=0.0373x elapsed=0:03:49.84    \nframe=  430 fps=1.9 q=47.0 size=    1536KiB time=00:00:08.58 bitrate=1466.5kbits/s speed=0.0372x elapsed=0:03:50.36    \nframe=  434 fps=1.9 q=35.0 size=    1536KiB time=00:00:08.66 bitrate=1453.0kbits/s speed=0.0375x elapsed=0:03:50.87    \nframe=  434 fps=1.9 q=35.0 size=    1536KiB time=00:00:08.66 bitrate=1453.0kbits/s speed=0.0374x elapsed=0:03:51.39    \nframe=  436 fps=1.9 q=50.0 size=    1536KiB time=00:00:08.70 bitrate=1446.3kbits/s speed=0.0375x elapsed=0:03:51.91    \nframe=  438 fps=1.9 q=48.0 size=    1536KiB time=00:00:08.74 bitrate=1439.7kbits/s speed=0.0376x elapsed=0:03:52.42    \nframe=  438 fps=1.9 q=48.0 size=    1536KiB time=00:00:08.74 bitrate=1439.7kbits/s speed=0.0375x elapsed=0:03:52.94    \nframe=  440 fps=1.9 q=50.0 size=    1536KiB time=00:00:08.78 bitrate=1433.1kbits/s speed=0.0376x elapsed=0:03:53.45    \nframe=  442 fps=1.9 q=43.0 size=    1536KiB time=00:00:08.82 bitrate=1426.6kbits/s speed=0.0377x elapsed=0:03:53.97    \nframe=  442 fps=1.9 q=43.0 size=    1536KiB time=00:00:08.82 bitrate=1426.6kbits/s speed=0.0376x elapsed=0:03:54.48    \nframe=  442 fps=1.9 q=43.0 size=    1536KiB time=00:00:08.82 bitrate=1426.6kbits/s speed=0.0375x elapsed=0:03:54.99    \nframe=  442 fps=1.9 q=43.0 size=    1536KiB time=00:00:08.82 bitrate=1426.6kbits/s speed=0.0374x elapsed=0:03:55.52    \nframe=  446 fps=1.9 q=48.0 size=    1536KiB time=00:00:08.90 bitrate=1413.8kbits/s speed=0.0377x elapsed=0:03:56.03    \nframe=  448 fps=1.9 q=48.0 size=    1536KiB time=00:00:08.94 bitrate=1407.5kbits/s speed=0.0378x elapsed=0:03:56.54    \nframe=  450 fps=1.9 q=34.0 size=    1536KiB time=00:00:08.98 bitrate=1401.2kbits/s speed=0.0379x elapsed=0:03:57.07    \nframe=  452 fps=1.9 q=50.0 size=    1536KiB time=00:00:09.02 bitrate=1395.0kbits/s speed=0.038x elapsed=0:03:57.63    \nframe=  454 fps=1.9 q=48.0 size=    1536KiB time=00:00:09.06 bitrate=1388.8kbits/s speed=0.038x elapsed=0:03:58.17    \nframe=  456 fps=1.9 q=50.0 size=    1536KiB time=00:00:09.10 bitrate=1382.7kbits/s speed=0.0381x elapsed=0:03:58.69    \nframe=  458 fps=1.9 q=43.0 size=    1536KiB time=00:00:09.14 bitrate=1376.7kbits/s speed=0.0382x elapsed=0:03:59.25    \nframe=  458 fps=1.9 q=43.0 size=    1536KiB time=00:00:09.14 bitrate=1376.7kbits/s speed=0.0381x elapsed=0:03:59.78    \nframe=  460 fps=1.9 q=50.0 size=    1536KiB time=00:00:09.18 bitrate=1370.7kbits/s speed=0.0382x elapsed=0:04:00.30    \nframe=  462 fps=1.9 q=48.0 size=    1536KiB time=00:00:09.22 bitrate=1364.7kbits/s speed=0.0383x elapsed=0:04:00.82    \nframe=  464 fps=1.9 q=50.0 size=    1536KiB time=00:00:09.26 bitrate=1358.8kbits/s speed=0.0384x elapsed=0:04:01.35    \nframe=  466 fps=1.9 q=34.0 size=    1536KiB time=00:00:09.30 bitrate=1353.0kbits/s speed=0.0384x elapsed=0:04:01.88    \nframe=  466 fps=1.9 q=34.0 size=    1536KiB time=00:00:09.30 bitrate=1353.0kbits/s speed=0.0384x elapsed=0:04:02.40    \nframe=  468 fps=1.9 q=50.0 size=    1536KiB time=00:00:09.34 bitrate=1347.2kbits/s speed=0.0384x elapsed=0:04:02.97    \nframe=  470 fps=1.9 q=48.0 size=    1536KiB time=00:00:09.38 bitrate=1341.5kbits/s speed=0.0385x elapsed=0:04:03.55    \nframe=  470 fps=1.9 q=48.0 size=    1536KiB time=00:00:09.38 bitrate=1341.5kbits/s speed=0.0384x elapsed=0:04:04.15    \nframe=  472 fps=1.9 q=50.0 size=    1536KiB time=00:00:09.42 bitrate=1335.8kbits/s speed=0.0385x elapsed=0:04:04.74    \nframe=  474 fps=1.9 q=43.0 size=    1536KiB time=00:00:09.46 bitrate=1330.1kbits/s speed=0.0386x elapsed=0:04:05.27    \nframe=  474 fps=1.9 q=43.0 size=    1536KiB time=00:00:09.46 bitrate=1330.1kbits/s speed=0.0385x elapsed=0:04:05.78    \nframe=  474 fps=1.9 q=43.0 size=    1536KiB time=00:00:09.46 bitrate=1330.1kbits/s speed=0.0384x elapsed=0:04:06.30    \nframe=  476 fps=1.9 q=51.0 size=    1536KiB time=00:00:09.50 bitrate=1324.5kbits/s speed=0.0385x elapsed=0:04:06.81    \nframe=  478 fps=1.9 q=50.0 size=    1536KiB time=00:00:09.54 bitrate=1319.0kbits/s speed=0.0386x elapsed=0:04:07.33    \nframe=  480 fps=1.9 q=53.0 size=    1536KiB time=00:00:09.58 bitrate=1313.5kbits/s speed=0.0387x elapsed=0:04:07.84    \nframe=  482 fps=1.9 q=34.0 size=    1536KiB time=00:00:09.62 bitrate=1308.0kbits/s speed=0.0387x elapsed=0:04:08.36    \nframe=  486 fps=2.0 q=53.0 size=    1536KiB time=00:00:09.70 bitrate=1297.2kbits/s speed=0.039x elapsed=0:04:08.87    \nframe=  488 fps=2.0 q=53.0 size=    1536KiB time=00:00:09.74 bitrate=1291.9kbits/s speed=0.0391x elapsed=0:04:09.38    \nframe=  490 fps=2.0 q=50.0 size=    1536KiB time=00:00:09.78 bitrate=1286.6kbits/s speed=0.0391x elapsed=0:04:09.90    \nframe=  490 fps=2.0 q=50.0 size=    1536KiB time=00:00:09.78 bitrate=1286.6kbits/s speed=0.0391x elapsed=0:04:10.42    \nframe=  494 fps=2.0 q=53.0 size=    1536KiB time=00:00:09.86 bitrate=1276.2kbits/s speed=0.0393x elapsed=0:04:10.94    \nframe=  496 fps=2.0 q=53.0 size=    1536KiB time=00:00:09.90 bitrate=1271.0kbits/s speed=0.0394x elapsed=0:04:11.46    \n[out#0/matroska @ 000001c61d339080] video:2327KiB audio:0KiB subtitle:0KiB other streams:0KiB global headers:0KiB muxing overhead: 0.123530%\nframe=  500 fps=2.0 q=47.0 Lsize=    2329KiB time=00:00:09.98 bitrate=1912.1kbits/s speed=0.0397x elapsed=0:04:11.68    \n",
  "seconds": 256.4151465892792,
  "probe_out": {}
}